<svg width="34" height="36" viewBox="0 0 34 36" fill="none" xmlns="http://www.w3.org/2000/svg">
<path opacity="0.4" d="M31.6611 14.4058H26.5777C22.409 14.4058 19.0142 11.011 19.0142 6.84231V1.75895C19.0142 0.791526 18.2227 0 17.2553 0H9.79734C4.37978 0 0 3.5179 0 9.79734V25.3816C0 31.6611 4.37978 35.1789 9.79734 35.1789H23.6227C29.0402 35.1789 33.42 31.6611 33.42 25.3816V16.1647C33.42 15.1973 32.6285 14.4058 31.6611 14.4058Z" fill="#ee5931"/>
<path d="M23.3938 0.369109C22.6727 -0.352059 21.4238 0.140446 21.4238 1.14305V7.28177C21.4238 9.84984 23.6049 11.9782 26.2609 11.9782C27.9319 11.9958 30.2537 11.9958 32.2414 11.9958C33.244 11.9958 33.7716 10.8173 33.0681 10.1137C30.5352 7.5632 25.9971 2.97235 23.3938 0.369109Z" fill="#ee5931"/>
</svg>
