<svg width="15" height="16" viewBox="0 0 15 16" fill="none" xmlns="http://www.w3.org/2000/svg">
<path fill-rule="evenodd" clip-rule="evenodd" d="M9.68043 5.78878C9.71327 5.40677 10.0491 5.12376 10.4306 5.15665C11.782 5.27319 12.8732 5.69246 13.6028 6.59286C14.3168 7.47411 14.5792 8.6902 14.5792 10.1596V10.2499C14.5792 11.8702 14.2595 13.1851 13.3683 14.0775C12.4772 14.9699 11.1641 15.2901 9.54615 15.2901H5.03305C3.41505 15.2901 2.102 14.9699 1.21087 14.0775C0.319742 13.1851 0 11.8702 0 10.2499V10.1596C0 8.7008 0.258891 7.49235 0.961292 6.61309C1.67972 5.71377 2.7554 5.28846 4.08826 5.16403C4.46949 5.12844 4.80734 5.40908 4.84287 5.79085C4.87841 6.17261 4.59818 6.51095 4.21696 6.54653C3.09569 6.65121 2.44169 6.98263 2.04398 7.48048C1.63023 7.9984 1.38651 8.82756 1.38651 10.1596V10.2499C1.38651 11.7329 1.68724 12.5909 2.19129 13.0957C2.69534 13.6005 3.55218 13.9016 5.03305 13.9016H9.54615C11.027 13.9016 11.8839 13.6005 12.3879 13.0957C12.892 12.5909 13.1927 11.7329 13.1927 10.2499V10.1596C13.1927 8.81734 12.9455 7.9854 12.5261 7.46773C12.1222 6.96923 11.456 6.63871 10.3117 6.54003C9.93019 6.50713 9.64758 6.17079 9.68043 5.78878Z" fill="white"/>
<path fill-rule="evenodd" clip-rule="evenodd" d="M7.29287 1.48999C7.67574 1.48999 7.98612 1.80082 7.98612 2.18424V10.0848C7.98612 10.4682 7.67574 10.779 7.29287 10.779C6.90999 10.779 6.59961 10.4682 6.59961 10.0848V2.18424C6.59961 1.80082 6.90999 1.48999 7.29287 1.48999Z" fill="white"/>
<path fill-rule="evenodd" clip-rule="evenodd" d="M6.80281 0.913545C7.07354 0.642425 7.51249 0.642425 7.78322 0.913545L10.1056 3.23927C10.3764 3.5104 10.3764 3.94997 10.1056 4.22109C9.8349 4.49221 9.39595 4.49221 9.12522 4.22109L7.29301 2.38627L5.46081 4.22109C5.19007 4.49221 4.75113 4.49221 4.48039 4.22109C4.20966 3.94997 4.20966 3.5104 4.48039 3.23927L6.80281 0.913545Z" fill="white"/>
</svg>
